<?xml version="1.0" standalone="no"?>
<!DOCTYPE svg PUBLIC "-//W3C//DTD SVG 20010904//EN"
 "http://www.w3.org/TR/2001/REC-SVG-20010904/DTD/svg10.dtd">
<svg version="1.0" xmlns="http://www.w3.org/2000/svg"
 width="1278.000000pt" height="1280.000000pt" viewBox="0 0 1278.000000 1280.000000"
 preserveAspectRatio="xMidYMid meet">
<metadata>
Created by potrace 1.15, written by Peter Selinger 2001-2017
</metadata>
<g transform="translate(0.000000,1280.000000) scale(0.100000,-0.100000)"
fill="#000000" stroke="none">
<path d="M1536 12658 c-3 -79 -8 -404 -10 -724 l-5 -581 107 -7 c342 -21 644
-158 884 -401 219 -222 374 -525 443 -867 38 -191 48 -327 42 -552 -9 -315
-56 -555 -163 -834 -234 -607 -661 -968 -1184 -1000 l-105 -7 3 -120 c33
-1295 634 -2668 1707 -3895 159 -181 615 -636 797 -794 375 -326 766 -617
1151 -856 65 -40 116 -74 115 -76 -4 -4 -410 -48 -623 -68 -596 -57 -888 -71
-1440 -70 -521 1 -717 10 -1110 54 -696 79 -1372 244 -1973 483 -89 36 -162
62 -162 59 0 -3 11 -17 24 -31 13 -15 229 -277 480 -584 364 -445 456 -563
456 -586 0 -66 -87 -116 -440 -256 -393 -156 -501 -221 -525 -316 -7 -27 -5
-28 174 -98 713 -281 1423 -437 2311 -508 265 -21 1103 -24 1390 -5 786 52
1196 99 2605 297 1204 169 1620 217 2355 267 253 17 1209 17 1435 0 874 -67
1620 -230 2319 -507 92 -36 170 -65 172 -62 2 2 -178 288 -401 637 -223 348
-405 643 -405 655 0 46 64 79 288 144 207 61 320 102 379 137 97 56 166 143
132 165 -26 17 -323 130 -484 185 -890 304 -1840 440 -2950 420 -418 -7 -887
-34 -1260 -72 l-60 -7 140 105 c885 659 1632 1480 2172 2388 539 906 833 1830
879 2756 l7 141 -104 6 c-322 20 -574 129 -803 347 -291 278 -490 702 -573
1225 -25 158 -25 546 1 705 49 311 147 575 297 800 82 123 246 288 362 365
200 131 453 205 703 205 l82 0 6 73 c9 115 69 1398 65 1401 -2 2 -60 -9 -129
-25 -1297 -300 -2506 -466 -3865 -531 -332 -15 -1354 -15 -1680 1 -1172 56
-2156 175 -3245 392 -269 54 -716 150 -761 164 -15 5 -18 -11 -23 -137z"/>
</g>
</svg>
